<svg width="200" height="65" viewBox="0 0 200 65" fill="none" xmlns="http://www.w3.org/2000/svg">
<path d="M0.864 64V55.348L17.832 37.624C21.192 34.096 23.768 31.296 25.56 29.224C27.408 27.096 28.696 25.276 29.424 23.764C30.152 22.252 30.516 20.712 30.516 19.144C30.516 16.512 29.676 14.44 27.996 12.928C26.372 11.416 24.272 10.66 21.696 10.66C19.008 10.66 16.684 11.444 14.724 13.012C12.764 14.524 11.336 16.764 10.44 19.732L0.444 16.624C1.116 13.32 2.488 10.464 4.56 8.056C6.632 5.592 9.152 3.716 12.12 2.428C15.144 1.084 18.336 0.411998 21.696 0.411998C25.728 0.411998 29.256 1.14 32.28 2.596C35.36 4.052 37.74 6.096 39.42 8.728C41.156 11.36 42.024 14.44 42.024 17.968C42.024 20.208 41.604 22.42 40.764 24.604C39.924 26.788 38.664 29.028 36.984 31.324C35.304 33.564 33.12 36.084 30.432 38.884L15.732 54.34H42.864V64H0.864ZM69.2131 65.008C65.7971 65.008 62.5491 64.392 59.4691 63.16C56.4451 61.872 53.8411 60.08 51.6571 57.784C49.5291 55.432 48.0731 52.66 47.2891 49.468L57.2851 45.94C58.2931 48.796 59.8331 50.98 61.9051 52.492C63.9771 53.948 66.4131 54.676 69.2131 54.676C71.4531 54.676 73.3851 54.256 75.0091 53.416C76.6891 52.576 78.0051 51.372 78.9571 49.804C79.9091 48.18 80.3851 46.276 80.3851 44.092C80.3851 41.908 79.9091 40.06 78.9571 38.548C78.0611 36.98 76.7731 35.776 75.0931 34.936C73.4131 34.096 71.4251 33.676 69.1291 33.676C68.0651 33.676 66.9451 33.788 65.7691 34.012C64.6491 34.236 63.6411 34.572 62.7451 35.02L60.1411 29.56L76.3531 11.08H50.8171V1.41999H89.2051V10.408L72.9091 29.476L73.0771 25.192C76.8291 25.248 80.1051 26.06 82.9051 27.628C85.7051 29.196 87.8891 31.352 89.4571 34.096C91.0251 36.84 91.8091 40.06 91.8091 43.756C91.8091 47.788 90.8291 51.428 88.8691 54.676C86.9091 57.868 84.2211 60.388 80.8051 62.236C77.3891 64.084 73.5251 65.008 69.2131 65.008ZM123.169 65.008C118.185 65.008 113.817 63.664 110.065 60.976C106.313 58.288 103.373 54.508 101.245 49.636C99.1727 44.764 98.1367 39.108 98.1367 32.668C98.1367 26.172 99.1727 20.516 101.245 15.7C103.317 10.884 106.229 7.132 109.981 4.444C113.733 1.756 118.101 0.411998 123.085 0.411998C128.181 0.411998 132.577 1.756 136.273 4.444C140.025 7.132 142.965 10.912 145.093 15.784C147.221 20.6 148.285 26.228 148.285 32.668C148.285 39.108 147.221 44.764 145.093 49.636C143.021 54.452 140.109 58.232 136.357 60.976C132.605 63.664 128.209 65.008 123.169 65.008ZM123.253 54.592C126.109 54.592 128.545 53.724 130.561 51.988C132.577 50.196 134.117 47.676 135.181 44.428C136.301 41.124 136.861 37.204 136.861 32.668C136.861 28.132 136.301 24.24 135.181 20.992C134.117 17.688 132.549 15.168 130.477 13.432C128.461 11.696 125.997 10.828 123.085 10.828C120.285 10.828 117.877 11.696 115.861 13.432C113.845 15.168 112.277 17.688 111.157 20.992C110.093 24.24 109.561 28.132 109.561 32.668C109.561 37.148 110.093 41.04 111.157 44.344C112.277 47.592 113.845 50.112 115.861 51.904C117.933 53.696 120.397 54.592 123.253 54.592ZM173.401 64V47.704H157.105V38.212H173.401V22H182.893V38.212H199.105V47.704H182.893V64H173.401Z" fill="#010205"/>
</svg>
