<svg width="627" height="106" viewBox="0 0 627 106" fill="none" xmlns="http://www.w3.org/2000/svg">
<mask id="path-1-inside-1_1525_1054" fill="white">
<path d="M0 0H627V106H0V0Z"/>
</mask>
<path d="M0 0H627V106H0V0Z" fill="white"/>
<path d="M627 105H0V107H627V105Z" fill="black" mask="url(#path-1-inside-1_1525_1054)"/>
<path d="M25.848 44V26.12H28.68V33.992H36.96V26.12H39.768V44H36.96V36.512H28.68V44H25.848ZM48.753 44.288C47.505 44.288 46.361 43.992 45.321 43.4C44.297 42.808 43.481 42 42.873 40.976C42.265 39.952 41.961 38.792 41.961 37.496C41.961 36.184 42.265 35.024 42.873 34.016C43.481 32.992 44.297 32.192 45.321 31.616C46.345 31.024 47.489 30.728 48.753 30.728C50.033 30.728 51.177 31.024 52.185 31.616C53.209 32.192 54.017 32.992 54.609 34.016C55.217 35.024 55.521 36.184 55.521 37.496C55.521 38.808 55.217 39.976 54.609 41C54.001 42.024 53.185 42.832 52.161 43.424C51.137 44 50.001 44.288 48.753 44.288ZM48.753 41.768C49.521 41.768 50.201 41.584 50.793 41.216C51.385 40.848 51.849 40.344 52.185 39.704C52.537 39.048 52.713 38.312 52.713 37.496C52.713 36.68 52.537 35.952 52.185 35.312C51.849 34.672 51.385 34.168 50.793 33.8C50.201 33.432 49.521 33.248 48.753 33.248C48.001 33.248 47.321 33.432 46.713 33.8C46.121 34.168 45.649 34.672 45.297 35.312C44.961 35.952 44.793 36.68 44.793 37.496C44.793 38.312 44.961 39.048 45.297 39.704C45.649 40.344 46.121 40.848 46.713 41.216C47.321 41.584 48.001 41.768 48.753 41.768ZM60.3583 44L55.8943 31.016H58.7743L62.1823 41.36H61.1743L64.6543 31.016H67.1263L70.5823 41.36H69.5743L73.0063 31.016H75.8863L71.3983 44H68.9503L65.4463 33.416H66.3343L62.8303 44H60.3583ZM86.6689 44.288C85.3729 44.288 84.2209 43.992 83.2129 43.4C82.2209 42.792 81.4289 41.976 80.8369 40.952C80.2609 39.928 79.9729 38.768 79.9729 37.472C79.9729 36.192 80.2609 35.04 80.8369 34.016C81.4129 32.992 82.2049 32.192 83.2129 31.616C84.2209 31.024 85.3729 30.728 86.6689 30.728C87.5489 30.728 88.3729 30.888 89.1409 31.208C89.9089 31.512 90.5729 31.936 91.1329 32.48C91.7089 33.024 92.1329 33.656 92.4049 34.376L90.0289 35.48C89.7569 34.808 89.3169 34.272 88.7089 33.872C88.1169 33.456 87.4369 33.248 86.6689 33.248C85.9329 33.248 85.2689 33.432 84.6769 33.8C84.1009 34.152 83.6449 34.656 83.3089 35.312C82.9729 35.952 82.8049 36.68 82.8049 37.496C82.8049 38.312 82.9729 39.048 83.3089 39.704C83.6449 40.344 84.1009 40.848 84.6769 41.216C85.2689 41.584 85.9329 41.768 86.6689 41.768C87.4529 41.768 88.1329 41.568 88.7089 41.168C89.3009 40.752 89.7409 40.2 90.0289 39.512L92.4049 40.64C92.1489 41.328 91.7329 41.952 91.1569 42.512C90.5969 43.056 89.9329 43.488 89.1649 43.808C88.3969 44.128 87.5649 44.288 86.6689 44.288ZM98.1064 44.288C97.2264 44.288 96.4504 44.136 95.7784 43.832C95.1224 43.512 94.6104 43.08 94.2424 42.536C93.8744 41.976 93.6904 41.32 93.6904 40.568C93.6904 39.864 93.8424 39.232 94.1464 38.672C94.4664 38.112 94.9544 37.64 95.6104 37.256C96.2664 36.872 97.0904 36.6 98.0824 36.44L102.594 35.696V37.832L98.6104 38.528C97.8904 38.656 97.3624 38.888 97.0264 39.224C96.6904 39.544 96.5224 39.96 96.5224 40.472C96.5224 40.968 96.7064 41.376 97.0744 41.696C97.4584 42 97.9464 42.152 98.5384 42.152C99.2744 42.152 99.9144 41.992 100.458 41.672C101.018 41.352 101.45 40.928 101.754 40.4C102.058 39.856 102.21 39.256 102.21 38.6V35.264C102.21 34.624 101.97 34.104 101.49 33.704C101.026 33.288 100.402 33.08 99.6184 33.08C98.8984 33.08 98.2664 33.272 97.7224 33.656C97.1944 34.024 96.8024 34.504 96.5464 35.096L94.2904 33.968C94.5304 33.328 94.9224 32.768 95.4664 32.288C96.0104 31.792 96.6424 31.408 97.3624 31.136C98.0984 30.864 98.8744 30.728 99.6904 30.728C100.714 30.728 101.618 30.92 102.402 31.304C103.202 31.688 103.818 32.224 104.25 32.912C104.698 33.584 104.922 34.368 104.922 35.264V44H102.33V41.648L102.882 41.72C102.578 42.248 102.186 42.704 101.706 43.088C101.242 43.472 100.706 43.768 100.098 43.976C99.5064 44.184 98.8424 44.288 98.1064 44.288ZM107.373 44V31.016H109.965V33.56L109.653 33.224C109.973 32.408 110.485 31.792 111.189 31.376C111.893 30.944 112.709 30.728 113.637 30.728C114.597 30.728 115.445 30.936 116.181 31.352C116.917 31.768 117.493 32.344 117.909 33.08C118.325 33.816 118.533 34.664 118.533 35.624V44H115.845V36.344C115.845 35.688 115.725 35.136 115.485 34.688C115.245 34.224 114.901 33.872 114.453 33.632C114.021 33.376 113.525 33.248 112.965 33.248C112.405 33.248 111.901 33.376 111.453 33.632C111.021 33.872 110.685 34.224 110.445 34.688C110.205 35.152 110.085 35.704 110.085 36.344V44H107.373ZM130.191 44.288C128.943 44.288 127.823 43.992 126.831 43.4C125.855 42.792 125.079 41.976 124.503 40.952C123.943 39.928 123.663 38.776 123.663 37.496C123.663 36.216 123.951 35.064 124.527 34.04C125.103 33.016 125.879 32.208 126.855 31.616C127.831 31.024 128.935 30.728 130.167 30.728C131.207 30.728 132.127 30.936 132.927 31.352C133.727 31.768 134.359 32.344 134.823 33.08L134.415 33.704V25.832H137.103V44H134.535V41.36L134.847 41.864C134.399 42.648 133.759 43.248 132.927 43.664C132.095 44.08 131.183 44.288 130.191 44.288ZM130.455 41.768C131.207 41.768 131.879 41.584 132.471 41.216C133.079 40.848 133.551 40.344 133.887 39.704C134.239 39.048 134.415 38.312 134.415 37.496C134.415 36.68 134.239 35.952 133.887 35.312C133.551 34.672 133.079 34.168 132.471 33.8C131.879 33.432 131.207 33.248 130.455 33.248C129.703 33.248 129.023 33.432 128.415 33.8C127.807 34.168 127.335 34.672 126.999 35.312C126.663 35.952 126.495 36.68 126.495 37.496C126.495 38.312 126.663 39.048 126.999 39.704C127.335 40.344 127.799 40.848 128.391 41.216C128.999 41.584 129.687 41.768 130.455 41.768ZM139.549 44V31.016H142.261V44H139.549ZM139.549 29.24V26.12H142.261V29.24H139.549ZM150.976 49.28C150.032 49.28 149.16 49.128 148.36 48.824C147.56 48.52 146.872 48.096 146.296 47.552C145.72 47.024 145.288 46.4 145 45.68L147.496 44.648C147.72 45.256 148.128 45.76 148.72 46.16C149.328 46.56 150.072 46.76 150.952 46.76C151.64 46.76 152.256 46.624 152.8 46.352C153.344 46.096 153.776 45.712 154.096 45.2C154.416 44.704 154.576 44.104 154.576 43.4V40.472L155.056 41.024C154.608 41.856 153.984 42.488 153.184 42.92C152.4 43.352 151.512 43.568 150.52 43.568C149.32 43.568 148.24 43.288 147.28 42.728C146.32 42.168 145.56 41.4 145 40.424C144.456 39.448 144.184 38.352 144.184 37.136C144.184 35.904 144.456 34.808 145 33.848C145.56 32.888 146.312 32.128 147.256 31.568C148.2 31.008 149.28 30.728 150.496 30.728C151.488 30.728 152.368 30.944 153.136 31.376C153.92 31.792 154.56 32.4 155.056 33.2L154.696 33.872V31.016H157.264V43.4C157.264 44.52 156.992 45.52 156.448 46.4C155.92 47.296 155.184 48 154.24 48.512C153.296 49.024 152.208 49.28 150.976 49.28ZM150.832 41.048C151.552 41.048 152.192 40.88 152.752 40.544C153.312 40.192 153.752 39.728 154.072 39.152C154.408 38.56 154.576 37.896 154.576 37.16C154.576 36.424 154.408 35.76 154.072 35.168C153.736 34.576 153.288 34.112 152.728 33.776C152.168 33.424 151.536 33.248 150.832 33.248C150.096 33.248 149.44 33.424 148.864 33.776C148.288 34.112 147.832 34.576 147.496 35.168C147.176 35.744 147.016 36.408 147.016 37.16C147.016 37.88 147.176 38.536 147.496 39.128C147.832 39.72 148.288 40.192 148.864 40.544C149.44 40.88 150.096 41.048 150.832 41.048ZM159.719 44V31.016H162.431V44H159.719ZM159.719 29.24V26.12H162.431V29.24H159.719ZM170.498 44.144C169.138 44.144 168.082 43.76 167.33 42.992C166.578 42.224 166.202 41.144 166.202 39.752V33.464H163.922V31.016H164.282C164.89 31.016 165.362 30.84 165.698 30.488C166.034 30.136 166.202 29.656 166.202 29.048V28.04H168.914V31.016H171.866V33.464H168.914V39.632C168.914 40.08 168.986 40.464 169.13 40.784C169.274 41.088 169.506 41.328 169.826 41.504C170.146 41.664 170.562 41.744 171.074 41.744C171.202 41.744 171.346 41.736 171.506 41.72C171.666 41.704 171.818 41.688 171.962 41.672V44C171.738 44.032 171.49 44.064 171.218 44.096C170.946 44.128 170.706 44.144 170.498 44.144ZM177.659 44.288C176.779 44.288 176.003 44.136 175.331 43.832C174.675 43.512 174.163 43.08 173.795 42.536C173.427 41.976 173.243 41.32 173.243 40.568C173.243 39.864 173.395 39.232 173.699 38.672C174.019 38.112 174.507 37.64 175.163 37.256C175.819 36.872 176.643 36.6 177.635 36.44L182.147 35.696V37.832L178.163 38.528C177.443 38.656 176.915 38.888 176.579 39.224C176.243 39.544 176.075 39.96 176.075 40.472C176.075 40.968 176.259 41.376 176.627 41.696C177.011 42 177.499 42.152 178.091 42.152C178.827 42.152 179.467 41.992 180.011 41.672C180.571 41.352 181.003 40.928 181.307 40.4C181.611 39.856 181.763 39.256 181.763 38.6V35.264C181.763 34.624 181.523 34.104 181.043 33.704C180.579 33.288 179.955 33.08 179.171 33.08C178.451 33.08 177.819 33.272 177.275 33.656C176.747 34.024 176.355 34.504 176.099 35.096L173.843 33.968C174.083 33.328 174.475 32.768 175.019 32.288C175.563 31.792 176.195 31.408 176.915 31.136C177.651 30.864 178.427 30.728 179.243 30.728C180.267 30.728 181.171 30.92 181.955 31.304C182.755 31.688 183.371 32.224 183.803 32.912C184.251 33.584 184.475 34.368 184.475 35.264V44H181.883V41.648L182.435 41.72C182.131 42.248 181.739 42.704 181.259 43.088C180.795 43.472 180.259 43.768 179.651 43.976C179.059 44.184 178.395 44.288 177.659 44.288ZM186.926 44V25.832H189.638V44H186.926ZM195.564 44V31.016H198.156V33.824L197.82 33.392C198.092 32.512 198.588 31.848 199.308 31.4C200.028 30.952 200.852 30.728 201.78 30.728C202.82 30.728 203.74 31.008 204.54 31.568C205.356 32.112 205.9 32.84 206.172 33.752L205.404 33.824C205.788 32.784 206.372 32.008 207.156 31.496C207.956 30.984 208.868 30.728 209.892 30.728C210.788 30.728 211.596 30.936 212.316 31.352C213.052 31.768 213.636 32.344 214.068 33.08C214.5 33.816 214.716 34.656 214.716 35.6V44H212.004V36.344C212.004 35.688 211.884 35.136 211.644 34.688C211.42 34.224 211.1 33.872 210.684 33.632C210.284 33.376 209.812 33.248 209.268 33.248C208.724 33.248 208.244 33.376 207.828 33.632C207.412 33.872 207.084 34.224 206.844 34.688C206.604 35.152 206.484 35.704 206.484 36.344V44H203.796V36.344C203.796 35.688 203.676 35.136 203.436 34.688C203.212 34.224 202.892 33.872 202.476 33.632C202.076 33.376 201.596 33.248 201.036 33.248C200.492 33.248 200.012 33.376 199.596 33.632C199.18 33.872 198.852 34.224 198.612 34.688C198.388 35.152 198.276 35.704 198.276 36.344V44H195.564ZM220.787 44.288C219.907 44.288 219.131 44.136 218.459 43.832C217.803 43.512 217.291 43.08 216.923 42.536C216.555 41.976 216.371 41.32 216.371 40.568C216.371 39.864 216.523 39.232 216.827 38.672C217.147 38.112 217.635 37.64 218.291 37.256C218.947 36.872 219.771 36.6 220.763 36.44L225.275 35.696V37.832L221.291 38.528C220.571 38.656 220.043 38.888 219.707 39.224C219.371 39.544 219.203 39.96 219.203 40.472C219.203 40.968 219.387 41.376 219.755 41.696C220.139 42 220.627 42.152 221.219 42.152C221.955 42.152 222.595 41.992 223.139 41.672C223.699 41.352 224.131 40.928 224.435 40.4C224.739 39.856 224.891 39.256 224.891 38.6V35.264C224.891 34.624 224.651 34.104 224.171 33.704C223.707 33.288 223.083 33.08 222.299 33.08C221.579 33.08 220.947 33.272 220.403 33.656C219.875 34.024 219.483 34.504 219.227 35.096L216.971 33.968C217.211 33.328 217.603 32.768 218.147 32.288C218.691 31.792 219.323 31.408 220.043 31.136C220.779 30.864 221.555 30.728 222.371 30.728C223.395 30.728 224.299 30.92 225.083 31.304C225.883 31.688 226.499 32.224 226.931 32.912C227.379 33.584 227.603 34.368 227.603 35.264V44H225.011V41.648L225.563 41.72C225.259 42.248 224.867 42.704 224.387 43.088C223.923 43.472 223.387 43.768 222.779 43.976C222.187 44.184 221.523 44.288 220.787 44.288ZM230.054 44V31.016H232.646V33.632L232.406 33.248C232.694 32.4 233.158 31.792 233.798 31.424C234.438 31.04 235.206 30.848 236.102 30.848H236.894V33.32H235.766C234.87 33.32 234.142 33.6 233.582 34.16C233.038 34.704 232.766 35.488 232.766 36.512V44H230.054ZM238.029 44V25.832H240.741V38L239.685 37.736L246.189 31.016H249.573L244.677 36.224L249.789 44H246.669L242.109 37.112L243.717 36.896L239.877 40.976L240.741 39.176V44H238.029ZM256.788 44.288C255.492 44.288 254.34 43.992 253.332 43.4C252.34 42.792 251.564 41.976 251.004 40.952C250.444 39.912 250.164 38.752 250.164 37.472C250.164 36.16 250.444 35 251.004 33.992C251.58 32.984 252.348 32.192 253.308 31.616C254.268 31.024 255.356 30.728 256.572 30.728C257.548 30.728 258.42 30.896 259.188 31.232C259.956 31.568 260.604 32.032 261.132 32.624C261.66 33.2 262.06 33.864 262.332 34.616C262.62 35.368 262.764 36.168 262.764 37.016C262.764 37.224 262.756 37.44 262.74 37.664C262.724 37.888 262.692 38.096 262.644 38.288H252.3V36.128H261.108L259.812 37.112C259.972 36.328 259.916 35.632 259.644 35.024C259.388 34.4 258.988 33.912 258.444 33.56C257.916 33.192 257.292 33.008 256.572 33.008C255.852 33.008 255.212 33.192 254.652 33.56C254.092 33.912 253.66 34.424 253.356 35.096C253.052 35.752 252.932 36.552 252.996 37.496C252.916 38.376 253.036 39.144 253.356 39.8C253.692 40.456 254.156 40.968 254.748 41.336C255.356 41.704 256.044 41.888 256.812 41.888C257.596 41.888 258.26 41.712 258.804 41.36C259.364 41.008 259.804 40.552 260.124 39.992L262.332 41.072C262.076 41.68 261.676 42.232 261.132 42.728C260.604 43.208 259.964 43.592 259.212 43.88C258.476 44.152 257.668 44.288 256.788 44.288ZM270.307 44.144C268.947 44.144 267.891 43.76 267.139 42.992C266.387 42.224 266.011 41.144 266.011 39.752V33.464H263.731V31.016H264.091C264.699 31.016 265.171 30.84 265.507 30.488C265.843 30.136 266.011 29.656 266.011 29.048V28.04H268.723V31.016H271.675V33.464H268.723V39.632C268.723 40.08 268.795 40.464 268.939 40.784C269.083 41.088 269.315 41.328 269.635 41.504C269.955 41.664 270.371 41.744 270.883 41.744C271.011 41.744 271.155 41.736 271.315 41.72C271.475 41.704 271.627 41.688 271.771 41.672V44C271.547 44.032 271.299 44.064 271.027 44.096C270.755 44.128 270.515 44.144 270.307 44.144ZM273.697 44V31.016H276.409V44H273.697ZM273.697 29.24V26.12H276.409V29.24H273.697ZM278.86 44V31.016H281.452V33.56L281.14 33.224C281.46 32.408 281.972 31.792 282.676 31.376C283.38 30.944 284.196 30.728 285.124 30.728C286.084 30.728 286.932 30.936 287.668 31.352C288.404 31.768 288.98 32.344 289.396 33.08C289.812 33.816 290.02 34.664 290.02 35.624V44H287.332V36.344C287.332 35.688 287.212 35.136 286.972 34.688C286.732 34.224 286.388 33.872 285.94 33.632C285.508 33.376 285.012 33.248 284.452 33.248C283.892 33.248 283.388 33.376 282.94 33.632C282.508 33.872 282.172 34.224 281.932 34.688C281.692 35.152 281.572 35.704 281.572 36.344V44H278.86ZM298.466 49.28C297.522 49.28 296.65 49.128 295.85 48.824C295.05 48.52 294.362 48.096 293.786 47.552C293.21 47.024 292.778 46.4 292.49 45.68L294.986 44.648C295.21 45.256 295.618 45.76 296.21 46.16C296.818 46.56 297.562 46.76 298.442 46.76C299.13 46.76 299.746 46.624 300.29 46.352C300.834 46.096 301.266 45.712 301.586 45.2C301.906 44.704 302.066 44.104 302.066 43.4V40.472L302.546 41.024C302.098 41.856 301.474 42.488 300.674 42.92C299.89 43.352 299.002 43.568 298.01 43.568C296.81 43.568 295.73 43.288 294.77 42.728C293.81 42.168 293.05 41.4 292.49 40.424C291.946 39.448 291.674 38.352 291.674 37.136C291.674 35.904 291.946 34.808 292.49 33.848C293.05 32.888 293.802 32.128 294.746 31.568C295.69 31.008 296.77 30.728 297.986 30.728C298.978 30.728 299.858 30.944 300.626 31.376C301.41 31.792 302.05 32.4 302.546 33.2L302.186 33.872V31.016H304.754V43.4C304.754 44.52 304.482 45.52 303.938 46.4C303.41 47.296 302.674 48 301.73 48.512C300.786 49.024 299.698 49.28 298.466 49.28ZM298.322 41.048C299.042 41.048 299.682 40.88 300.242 40.544C300.802 40.192 301.242 39.728 301.562 39.152C301.898 38.56 302.066 37.896 302.066 37.16C302.066 36.424 301.898 35.76 301.562 35.168C301.226 34.576 300.778 34.112 300.218 33.776C299.658 33.424 299.026 33.248 298.322 33.248C297.586 33.248 296.93 33.424 296.354 33.776C295.778 34.112 295.322 34.576 294.986 35.168C294.666 35.744 294.506 36.408 294.506 37.16C294.506 37.88 294.666 38.536 294.986 39.128C295.322 39.72 295.778 40.192 296.354 40.544C296.93 40.88 297.586 41.048 298.322 41.048ZM310.684 44V25.832H313.396V33.56L312.964 33.224C313.284 32.408 313.796 31.792 314.5 31.376C315.204 30.944 316.02 30.728 316.948 30.728C317.908 30.728 318.756 30.936 319.492 31.352C320.228 31.768 320.804 32.344 321.22 33.08C321.636 33.816 321.844 34.656 321.844 35.6V44H319.156V36.344C319.156 35.688 319.028 35.136 318.772 34.688C318.532 34.224 318.196 33.872 317.764 33.632C317.332 33.376 316.836 33.248 316.276 33.248C315.732 33.248 315.236 33.376 314.788 33.632C314.356 33.872 314.012 34.224 313.756 34.688C313.516 35.152 313.396 35.704 313.396 36.344V44H310.684ZM330.123 44.288C328.827 44.288 327.675 43.992 326.667 43.4C325.675 42.792 324.899 41.976 324.339 40.952C323.779 39.912 323.499 38.752 323.499 37.472C323.499 36.16 323.779 35 324.339 33.992C324.915 32.984 325.683 32.192 326.643 31.616C327.603 31.024 328.691 30.728 329.907 30.728C330.883 30.728 331.755 30.896 332.523 31.232C333.291 31.568 333.939 32.032 334.467 32.624C334.995 33.2 335.395 33.864 335.667 34.616C335.955 35.368 336.099 36.168 336.099 37.016C336.099 37.224 336.091 37.44 336.075 37.664C336.059 37.888 336.027 38.096 335.979 38.288H325.635V36.128H334.443L333.147 37.112C333.307 36.328 333.251 35.632 332.979 35.024C332.723 34.4 332.323 33.912 331.779 33.56C331.251 33.192 330.627 33.008 329.907 33.008C329.187 33.008 328.547 33.192 327.987 33.56C327.427 33.912 326.995 34.424 326.691 35.096C326.387 35.752 326.267 36.552 326.331 37.496C326.251 38.376 326.371 39.144 326.691 39.8C327.027 40.456 327.491 40.968 328.083 41.336C328.691 41.704 329.379 41.888 330.147 41.888C330.931 41.888 331.595 41.712 332.139 41.36C332.699 41.008 333.139 40.552 333.459 39.992L335.667 41.072C335.411 41.68 335.011 42.232 334.467 42.728C333.939 43.208 333.299 43.592 332.547 43.88C331.811 44.152 331.003 44.288 330.123 44.288ZM338.026 44V25.832H340.738V44H338.026ZM343.188 48.8V31.016H345.78V33.704L345.468 33.08C345.948 32.344 346.588 31.768 347.388 31.352C348.188 30.936 349.1 30.728 350.124 30.728C351.356 30.728 352.46 31.024 353.436 31.616C354.428 32.208 355.204 33.016 355.764 34.04C356.34 35.064 356.628 36.216 356.628 37.496C356.628 38.776 356.34 39.928 355.764 40.952C355.204 41.976 354.436 42.792 353.46 43.4C352.484 43.992 351.372 44.288 350.124 44.288C349.116 44.288 348.196 44.08 347.364 43.664C346.548 43.248 345.916 42.648 345.468 41.864L345.9 41.36V48.8H343.188ZM349.86 41.768C350.628 41.768 351.308 41.584 351.9 41.216C352.492 40.848 352.956 40.344 353.292 39.704C353.644 39.048 353.82 38.312 353.82 37.496C353.82 36.68 353.644 35.952 353.292 35.312C352.956 34.672 352.492 34.168 351.9 33.8C351.308 33.432 350.628 33.248 349.86 33.248C349.108 33.248 348.428 33.432 347.82 33.8C347.228 34.168 346.756 34.672 346.404 35.312C346.068 35.952 345.9 36.68 345.9 37.496C345.9 38.312 346.068 39.048 346.404 39.704C346.756 40.344 347.228 40.848 347.82 41.216C348.428 41.584 349.108 41.768 349.86 41.768ZM362.022 44V31.016H364.734V44H362.022ZM362.022 29.24V26.12H364.734V29.24H362.022ZM367.185 44V31.016H369.777V33.824L369.441 33.392C369.713 32.512 370.209 31.848 370.929 31.4C371.649 30.952 372.473 30.728 373.401 30.728C374.441 30.728 375.361 31.008 376.161 31.568C376.977 32.112 377.521 32.84 377.793 33.752L377.025 33.824C377.409 32.784 377.993 32.008 378.777 31.496C379.577 30.984 380.489 30.728 381.513 30.728C382.409 30.728 383.217 30.936 383.937 31.352C384.673 31.768 385.257 32.344 385.689 33.08C386.121 33.816 386.337 34.656 386.337 35.6V44H383.625V36.344C383.625 35.688 383.505 35.136 383.265 34.688C383.041 34.224 382.721 33.872 382.305 33.632C381.905 33.376 381.433 33.248 380.889 33.248C380.345 33.248 379.865 33.376 379.449 33.632C379.033 33.872 378.705 34.224 378.465 34.688C378.225 35.152 378.105 35.704 378.105 36.344V44H375.417V36.344C375.417 35.688 375.297 35.136 375.057 34.688C374.833 34.224 374.513 33.872 374.097 33.632C373.697 33.376 373.217 33.248 372.657 33.248C372.113 33.248 371.633 33.376 371.217 33.632C370.801 33.872 370.473 34.224 370.233 34.688C370.009 35.152 369.897 35.704 369.897 36.344V44H367.185ZM388.519 48.8V31.016H391.111V33.704L390.799 33.08C391.279 32.344 391.919 31.768 392.719 31.352C393.519 30.936 394.431 30.728 395.455 30.728C396.687 30.728 397.791 31.024 398.767 31.616C399.759 32.208 400.535 33.016 401.095 34.04C401.671 35.064 401.959 36.216 401.959 37.496C401.959 38.776 401.671 39.928 401.095 40.952C400.535 41.976 399.767 42.792 398.791 43.4C397.815 43.992 396.703 44.288 395.455 44.288C394.447 44.288 393.527 44.08 392.695 43.664C391.879 43.248 391.247 42.648 390.799 41.864L391.231 41.36V48.8H388.519ZM395.191 41.768C395.959 41.768 396.639 41.584 397.231 41.216C397.823 40.848 398.287 40.344 398.623 39.704C398.975 39.048 399.151 38.312 399.151 37.496C399.151 36.68 398.975 35.952 398.623 35.312C398.287 34.672 397.823 34.168 397.231 33.8C396.639 33.432 395.959 33.248 395.191 33.248C394.439 33.248 393.759 33.432 393.151 33.8C392.559 34.168 392.087 34.672 391.735 35.312C391.399 35.952 391.231 36.68 391.231 37.496C391.231 38.312 391.399 39.048 391.735 39.704C392.087 40.344 392.559 40.848 393.151 41.216C393.759 41.584 394.439 41.768 395.191 41.768ZM403.877 44V31.016H406.469V33.632L406.229 33.248C406.517 32.4 406.981 31.792 407.621 31.424C408.261 31.04 409.029 30.848 409.925 30.848H410.717V33.32H409.589C408.693 33.32 407.965 33.6 407.405 34.16C406.861 34.704 406.589 35.488 406.589 36.512V44H403.877ZM418.117 44.288C416.869 44.288 415.725 43.992 414.685 43.4C413.661 42.808 412.845 42 412.237 40.976C411.629 39.952 411.325 38.792 411.325 37.496C411.325 36.184 411.629 35.024 412.237 34.016C412.845 32.992 413.661 32.192 414.685 31.616C415.709 31.024 416.853 30.728 418.117 30.728C419.397 30.728 420.541 31.024 421.549 31.616C422.573 32.192 423.381 32.992 423.973 34.016C424.581 35.024 424.885 36.184 424.885 37.496C424.885 38.808 424.581 39.976 423.973 41C423.365 42.024 422.549 42.832 421.525 43.424C420.501 44 419.365 44.288 418.117 44.288ZM418.117 41.768C418.885 41.768 419.565 41.584 420.157 41.216C420.749 40.848 421.213 40.344 421.549 39.704C421.901 39.048 422.077 38.312 422.077 37.496C422.077 36.68 421.901 35.952 421.549 35.312C421.213 34.672 420.749 34.168 420.157 33.8C419.565 33.432 418.885 33.248 418.117 33.248C417.365 33.248 416.685 33.432 416.077 33.8C415.485 34.168 415.013 34.672 414.661 35.312C414.325 35.952 414.157 36.68 414.157 37.496C414.157 38.312 414.325 39.048 414.661 39.704C415.013 40.344 415.485 40.848 416.077 41.216C416.685 41.584 417.365 41.768 418.117 41.768ZM430.346 44L425.258 31.016H428.21L432.122 41.6H431.042L434.954 31.016H437.93L432.818 44H430.346ZM444.915 44.288C443.619 44.288 442.467 43.992 441.459 43.4C440.467 42.792 439.691 41.976 439.131 40.952C438.571 39.912 438.291 38.752 438.291 37.472C438.291 36.16 438.571 35 439.131 33.992C439.707 32.984 440.475 32.192 441.435 31.616C442.395 31.024 443.483 30.728 444.699 30.728C445.675 30.728 446.547 30.896 447.315 31.232C448.083 31.568 448.731 32.032 449.259 32.624C449.787 33.2 450.187 33.864 450.459 34.616C450.747 35.368 450.891 36.168 450.891 37.016C450.891 37.224 450.883 37.44 450.867 37.664C450.851 37.888 450.819 38.096 450.771 38.288H440.427V36.128H449.235L447.939 37.112C448.099 36.328 448.043 35.632 447.771 35.024C447.515 34.4 447.115 33.912 446.571 33.56C446.043 33.192 445.419 33.008 444.699 33.008C443.979 33.008 443.339 33.192 442.779 33.56C442.219 33.912 441.787 34.424 441.483 35.096C441.179 35.752 441.059 36.552 441.123 37.496C441.043 38.376 441.163 39.144 441.483 39.8C441.819 40.456 442.283 40.968 442.875 41.336C443.483 41.704 444.171 41.888 444.939 41.888C445.723 41.888 446.387 41.712 446.931 41.36C447.491 41.008 447.931 40.552 448.251 39.992L450.459 41.072C450.203 41.68 449.803 42.232 449.259 42.728C448.731 43.208 448.091 43.592 447.339 43.88C446.603 44.152 445.795 44.288 444.915 44.288ZM25.584 80V67.016H28.176V69.824L27.84 69.392C28.112 68.512 28.608 67.848 29.328 67.4C30.048 66.952 30.872 66.728 31.8 66.728C32.84 66.728 33.76 67.008 34.56 67.568C35.376 68.112 35.92 68.84 36.192 69.752L35.424 69.824C35.808 68.784 36.392 68.008 37.176 67.496C37.976 66.984 38.888 66.728 39.912 66.728C40.808 66.728 41.616 66.936 42.336 67.352C43.072 67.768 43.656 68.344 44.088 69.08C44.52 69.816 44.736 70.656 44.736 71.6V80H42.024V72.344C42.024 71.688 41.904 71.136 41.664 70.688C41.44 70.224 41.12 69.872 40.704 69.632C40.304 69.376 39.832 69.248 39.288 69.248C38.744 69.248 38.264 69.376 37.848 69.632C37.432 69.872 37.104 70.224 36.864 70.688C36.624 71.152 36.504 71.704 36.504 72.344V80H33.816V72.344C33.816 71.688 33.696 71.136 33.456 70.688C33.232 70.224 32.912 69.872 32.496 69.632C32.096 69.376 31.616 69.248 31.056 69.248C30.512 69.248 30.032 69.376 29.616 69.632C29.2 69.872 28.872 70.224 28.632 70.688C28.408 71.152 28.296 71.704 28.296 72.344V80H25.584ZM47.8363 85.304C47.5163 85.304 47.1963 85.272 46.8763 85.208C46.5723 85.16 46.2923 85.08 46.0363 84.968V82.64C46.2283 82.688 46.4603 82.728 46.7323 82.76C47.0043 82.808 47.2683 82.832 47.5243 82.832C48.2763 82.832 48.8283 82.664 49.1803 82.328C49.5483 82.008 49.8763 81.504 50.1643 80.816L51.0283 78.848L50.9803 81.128L45.3643 67.016H48.2683L52.4203 77.84H51.4363L55.5643 67.016H58.4923L52.7563 81.416C52.4523 82.184 52.0683 82.856 51.6043 83.432C51.1563 84.024 50.6203 84.48 49.9963 84.8C49.3883 85.136 48.6683 85.304 47.8363 85.304ZM66.2477 80L61.7837 67.016H64.6637L68.0717 77.36H67.0637L70.5437 67.016H73.0157L76.4717 77.36H75.4637L78.8957 67.016H81.7757L77.2877 80H74.8397L71.3357 69.416H72.2237L68.7197 80H66.2477ZM88.7766 80.288C87.4806 80.288 86.3286 79.992 85.3206 79.4C84.3286 78.792 83.5526 77.976 82.9926 76.952C82.4326 75.912 82.1526 74.752 82.1526 73.472C82.1526 72.16 82.4326 71 82.9926 69.992C83.5686 68.984 84.3366 68.192 85.2966 67.616C86.2566 67.024 87.3446 66.728 88.5606 66.728C89.5366 66.728 90.4086 66.896 91.1766 67.232C91.9446 67.568 92.5926 68.032 93.1206 68.624C93.6486 69.2 94.0486 69.864 94.3206 70.616C94.6086 71.368 94.7526 72.168 94.7526 73.016C94.7526 73.224 94.7446 73.44 94.7286 73.664C94.7126 73.888 94.6806 74.096 94.6326 74.288H84.2886V72.128H93.0966L91.8006 73.112C91.9606 72.328 91.9046 71.632 91.6326 71.024C91.3766 70.4 90.9766 69.912 90.4326 69.56C89.9046 69.192 89.2806 69.008 88.5606 69.008C87.8406 69.008 87.2006 69.192 86.6406 69.56C86.0806 69.912 85.6486 70.424 85.3446 71.096C85.0406 71.752 84.9206 72.552 84.9846 73.496C84.9046 74.376 85.0246 75.144 85.3446 75.8C85.6806 76.456 86.1446 76.968 86.7366 77.336C87.3446 77.704 88.0326 77.888 88.8006 77.888C89.5846 77.888 90.2486 77.712 90.7926 77.36C91.3526 77.008 91.7926 76.552 92.1126 75.992L94.3206 77.072C94.0646 77.68 93.6646 78.232 93.1206 78.728C92.5926 79.208 91.9526 79.592 91.2006 79.88C90.4646 80.152 89.6566 80.288 88.7766 80.288ZM103.615 80.288C102.607 80.288 101.687 80.08 100.855 79.664C100.039 79.248 99.4073 78.648 98.9593 77.864L99.2713 77.36V80H96.6793V61.832H99.3913V69.704L98.9593 69.08C99.4393 68.344 100.079 67.768 100.879 67.352C101.679 66.936 102.591 66.728 103.615 66.728C104.847 66.728 105.951 67.024 106.927 67.616C107.919 68.208 108.695 69.016 109.255 70.04C109.831 71.064 110.119 72.216 110.119 73.496C110.119 74.776 109.831 75.928 109.255 76.952C108.695 77.976 107.927 78.792 106.951 79.4C105.975 79.992 104.863 80.288 103.615 80.288ZM103.351 77.768C104.119 77.768 104.799 77.584 105.391 77.216C105.983 76.848 106.447 76.344 106.783 75.704C107.135 75.048 107.311 74.312 107.311 73.496C107.311 72.68 107.135 71.952 106.783 71.312C106.447 70.672 105.983 70.168 105.391 69.8C104.799 69.432 104.119 69.248 103.351 69.248C102.599 69.248 101.919 69.432 101.311 69.8C100.719 70.168 100.247 70.672 99.8953 71.312C99.5593 71.952 99.3913 72.68 99.3913 73.496C99.3913 74.312 99.5593 75.048 99.8953 75.704C100.247 76.344 100.719 76.848 101.311 77.216C101.919 77.584 102.599 77.768 103.351 77.768ZM116.837 80.288C115.509 80.288 114.341 79.96 113.333 79.304C112.341 78.648 111.645 77.768 111.245 76.664L113.333 75.68C113.685 76.416 114.165 77 114.773 77.432C115.397 77.864 116.085 78.08 116.837 78.08C117.477 78.08 117.997 77.936 118.397 77.648C118.797 77.36 118.997 76.968 118.997 76.472C118.997 76.152 118.909 75.896 118.733 75.704C118.557 75.496 118.333 75.328 118.061 75.2C117.805 75.072 117.541 74.976 117.269 74.912L115.229 74.336C114.109 74.016 113.269 73.536 112.709 72.896C112.165 72.24 111.893 71.48 111.893 70.616C111.893 69.832 112.093 69.152 112.493 68.576C112.893 67.984 113.445 67.528 114.149 67.208C114.853 66.888 115.645 66.728 116.525 66.728C117.709 66.728 118.765 67.024 119.693 67.616C120.621 68.192 121.277 69 121.661 70.04L119.573 71.024C119.317 70.4 118.909 69.904 118.349 69.536C117.805 69.168 117.189 68.984 116.501 68.984C115.909 68.984 115.437 69.128 115.085 69.416C114.733 69.688 114.557 70.048 114.557 70.496C114.557 70.8 114.637 71.056 114.797 71.264C114.957 71.456 115.165 71.616 115.421 71.744C115.677 71.856 115.941 71.952 116.213 72.032L118.325 72.656C119.397 72.96 120.221 73.44 120.797 74.096C121.373 74.736 121.661 75.504 121.661 76.4C121.661 77.168 121.453 77.848 121.037 78.44C120.637 79.016 120.077 79.472 119.357 79.808C118.637 80.128 117.797 80.288 116.837 80.288ZM123.599 80V67.016H126.311V80H123.599ZM123.599 65.24V62.12H126.311V65.24H123.599ZM134.377 80.144C133.017 80.144 131.961 79.76 131.209 78.992C130.457 78.224 130.081 77.144 130.081 75.752V69.464H127.801V67.016H128.161C128.769 67.016 129.241 66.84 129.577 66.488C129.913 66.136 130.081 65.656 130.081 65.048V64.04H132.793V67.016H135.745V69.464H132.793V75.632C132.793 76.08 132.865 76.464 133.009 76.784C133.153 77.088 133.385 77.328 133.705 77.504C134.025 77.664 134.441 77.744 134.953 77.744C135.081 77.744 135.225 77.736 135.385 77.72C135.545 77.704 135.697 77.688 135.841 77.672V80C135.617 80.032 135.369 80.064 135.097 80.096C134.825 80.128 134.585 80.144 134.377 80.144ZM143.63 80.288C142.334 80.288 141.182 79.992 140.174 79.4C139.182 78.792 138.406 77.976 137.846 76.952C137.286 75.912 137.006 74.752 137.006 73.472C137.006 72.16 137.286 71 137.846 69.992C138.422 68.984 139.19 68.192 140.15 67.616C141.11 67.024 142.198 66.728 143.414 66.728C144.39 66.728 145.262 66.896 146.03 67.232C146.798 67.568 147.446 68.032 147.974 68.624C148.502 69.2 148.902 69.864 149.174 70.616C149.462 71.368 149.606 72.168 149.606 73.016C149.606 73.224 149.598 73.44 149.582 73.664C149.566 73.888 149.534 74.096 149.486 74.288H139.142V72.128H147.95L146.654 73.112C146.814 72.328 146.758 71.632 146.486 71.024C146.23 70.4 145.83 69.912 145.286 69.56C144.758 69.192 144.134 69.008 143.414 69.008C142.694 69.008 142.054 69.192 141.494 69.56C140.934 69.912 140.502 70.424 140.198 71.096C139.894 71.752 139.774 72.552 139.838 73.496C139.758 74.376 139.878 75.144 140.198 75.8C140.534 76.456 140.998 76.968 141.59 77.336C142.198 77.704 142.886 77.888 143.654 77.888C144.438 77.888 145.102 77.712 145.646 77.36C146.206 77.008 146.646 76.552 146.966 75.992L149.174 77.072C148.918 77.68 148.518 78.232 147.974 78.728C147.446 79.208 146.806 79.592 146.054 79.88C145.318 80.152 144.51 80.288 143.63 80.288ZM152.516 68.384L152.156 62.12H154.676L154.316 68.384H152.516ZM162.55 80.288C161.222 80.288 160.054 79.96 159.046 79.304C158.054 78.648 157.358 77.768 156.958 76.664L159.046 75.68C159.398 76.416 159.878 77 160.486 77.432C161.11 77.864 161.798 78.08 162.55 78.08C163.19 78.08 163.71 77.936 164.11 77.648C164.51 77.36 164.71 76.968 164.71 76.472C164.71 76.152 164.622 75.896 164.446 75.704C164.27 75.496 164.046 75.328 163.774 75.2C163.518 75.072 163.254 74.976 162.982 74.912L160.942 74.336C159.822 74.016 158.982 73.536 158.422 72.896C157.878 72.24 157.606 71.48 157.606 70.616C157.606 69.832 157.806 69.152 158.206 68.576C158.606 67.984 159.158 67.528 159.862 67.208C160.566 66.888 161.358 66.728 162.238 66.728C163.422 66.728 164.478 67.024 165.406 67.616C166.334 68.192 166.99 69 167.374 70.04L165.286 71.024C165.03 70.4 164.622 69.904 164.062 69.536C163.518 69.168 162.902 68.984 162.214 68.984C161.622 68.984 161.15 69.128 160.798 69.416C160.446 69.688 160.27 70.048 160.27 70.496C160.27 70.8 160.35 71.056 160.51 71.264C160.67 71.456 160.878 71.616 161.134 71.744C161.39 71.856 161.654 71.952 161.926 72.032L164.038 72.656C165.11 72.96 165.934 73.44 166.51 74.096C167.086 74.736 167.374 75.504 167.374 76.4C167.374 77.168 167.166 77.848 166.75 78.44C166.35 79.016 165.79 79.472 165.07 79.808C164.35 80.128 163.51 80.288 162.55 80.288ZM176.554 80L171.466 67.016H174.418L178.33 77.6H177.25L181.162 67.016H184.139L179.026 80H176.554ZM185.262 80V67.016H187.974V80H185.262ZM185.262 65.24V62.12H187.974V65.24H185.262ZM195.225 80.288C193.897 80.288 192.729 79.96 191.721 79.304C190.729 78.648 190.033 77.768 189.633 76.664L191.721 75.68C192.073 76.416 192.553 77 193.161 77.432C193.785 77.864 194.473 78.08 195.225 78.08C195.865 78.08 196.385 77.936 196.785 77.648C197.185 77.36 197.385 76.968 197.385 76.472C197.385 76.152 197.297 75.896 197.121 75.704C196.945 75.496 196.721 75.328 196.449 75.2C196.193 75.072 195.929 74.976 195.657 74.912L193.617 74.336C192.497 74.016 191.657 73.536 191.097 72.896C190.553 72.24 190.281 71.48 190.281 70.616C190.281 69.832 190.481 69.152 190.881 68.576C191.281 67.984 191.833 67.528 192.537 67.208C193.241 66.888 194.033 66.728 194.913 66.728C196.097 66.728 197.153 67.024 198.081 67.616C199.009 68.192 199.665 69 200.049 70.04L197.961 71.024C197.705 70.4 197.297 69.904 196.737 69.536C196.193 69.168 195.577 68.984 194.889 68.984C194.297 68.984 193.825 69.128 193.473 69.416C193.121 69.688 192.945 70.048 192.945 70.496C192.945 70.8 193.025 71.056 193.185 71.264C193.345 71.456 193.553 71.616 193.809 71.744C194.065 71.856 194.329 71.952 194.601 72.032L196.713 72.656C197.785 72.96 198.609 73.44 199.185 74.096C199.761 74.736 200.049 75.504 200.049 76.4C200.049 77.168 199.841 77.848 199.425 78.44C199.025 79.016 198.465 79.472 197.745 79.808C197.025 80.128 196.185 80.288 195.225 80.288ZM201.986 80V67.016H204.698V80H201.986ZM201.986 65.24V62.12H204.698V65.24H201.986ZM214.085 80.288C213.077 80.288 212.157 80.08 211.325 79.664C210.509 79.248 209.877 78.648 209.429 77.864L209.741 77.36V80H207.149V61.832H209.861V69.704L209.429 69.08C209.909 68.344 210.549 67.768 211.349 67.352C212.149 66.936 213.061 66.728 214.085 66.728C215.317 66.728 216.421 67.024 217.397 67.616C218.389 68.208 219.165 69.016 219.725 70.04C220.301 71.064 220.589 72.216 220.589 73.496C220.589 74.776 220.301 75.928 219.725 76.952C219.165 77.976 218.397 78.792 217.421 79.4C216.445 79.992 215.333 80.288 214.085 80.288ZM213.821 77.768C214.589 77.768 215.269 77.584 215.861 77.216C216.453 76.848 216.917 76.344 217.253 75.704C217.605 75.048 217.781 74.312 217.781 73.496C217.781 72.68 217.605 71.952 217.253 71.312C216.917 70.672 216.453 70.168 215.861 69.8C215.269 69.432 214.589 69.248 213.821 69.248C213.069 69.248 212.389 69.432 211.781 69.8C211.189 70.168 210.717 70.672 210.365 71.312C210.029 71.952 209.861 72.68 209.861 73.496C209.861 74.312 210.029 75.048 210.365 75.704C210.717 76.344 211.189 76.848 211.781 77.216C212.389 77.584 213.069 77.768 213.821 77.768ZM222.507 80V67.016H225.219V80H222.507ZM222.507 65.24V62.12H225.219V65.24H222.507ZM227.67 80V61.832H230.382V80H227.67ZM232.832 80V67.016H235.544V80H232.832ZM232.832 65.24V62.12H235.544V65.24H232.832ZM243.611 80.144C242.251 80.144 241.195 79.76 240.443 78.992C239.691 78.224 239.315 77.144 239.315 75.752V69.464H237.035V67.016H237.395C238.003 67.016 238.475 66.84 238.811 66.488C239.147 66.136 239.315 65.656 239.315 65.048V64.04H242.027V67.016H244.979V69.464H242.027V75.632C242.027 76.08 242.099 76.464 242.243 76.784C242.387 77.088 242.619 77.328 242.939 77.504C243.259 77.664 243.675 77.744 244.187 77.744C244.315 77.744 244.459 77.736 244.619 77.72C244.779 77.704 244.931 77.688 245.075 77.672V80C244.851 80.032 244.603 80.064 244.331 80.096C244.059 80.128 243.819 80.144 243.611 80.144ZM248.154 85.304C247.834 85.304 247.514 85.272 247.194 85.208C246.89 85.16 246.61 85.08 246.354 84.968V82.64C246.546 82.688 246.778 82.728 247.05 82.76C247.322 82.808 247.586 82.832 247.842 82.832C248.594 82.832 249.146 82.664 249.498 82.328C249.866 82.008 250.194 81.504 250.482 80.816L251.346 78.848L251.298 81.128L245.682 67.016H248.586L252.738 77.84H251.754L255.882 67.016H258.81L253.074 81.416C252.77 82.184 252.386 82.856 251.922 83.432C251.474 84.024 250.938 84.48 250.314 84.8C249.706 85.136 248.986 85.304 248.154 85.304ZM263.066 74.672V74.264C263.066 73.56 263.178 72.936 263.402 72.392C263.642 71.848 263.938 71.36 264.29 70.928C264.658 70.48 265.034 70.072 265.418 69.704C265.962 69.192 266.442 68.696 266.858 68.216C267.29 67.736 267.506 67.176 267.506 66.536C267.506 66.136 267.41 65.776 267.218 65.456C267.026 65.12 266.738 64.856 266.354 64.664C265.986 64.456 265.53 64.352 264.986 64.352C264.234 64.352 263.586 64.584 263.042 65.048C262.514 65.496 262.178 66.104 262.034 66.872L259.514 66.272C259.658 65.392 259.978 64.624 260.474 63.968C260.986 63.296 261.626 62.776 262.394 62.408C263.178 62.024 264.058 61.832 265.034 61.832C266.138 61.832 267.082 62.056 267.866 62.504C268.666 62.936 269.274 63.504 269.69 64.208C270.106 64.912 270.314 65.672 270.314 66.488C270.314 67.144 270.178 67.736 269.906 68.264C269.65 68.776 269.314 69.248 268.898 69.68C268.498 70.112 268.082 70.536 267.65 70.952C267.138 71.448 266.682 71.968 266.282 72.512C265.898 73.04 265.706 73.664 265.706 74.384V74.672H263.066ZM263.066 80V76.88H265.826V80H263.066Z" fill="#010205"/>
<path d="M591 46V60" stroke="black" stroke-width="2" stroke-linecap="round" stroke-linejoin="round"/>
<path d="M584 53H598" stroke="black" stroke-width="2" stroke-linecap="round" stroke-linejoin="round"/>
</svg>
